# xmcd CD database file
#
# Track frame offsets:
#	150
#	3995
#	26117
#	45790
#	66462
#	87947
#	91072
#	115625
#	135790
#	159205
#	163665
#	184070
#	206500
#	213810
#
# Disc length: 3168 seconds
#
# Revision: 0
# Processed by: cddbd v1.5.1PL2 Copyright (c) Steve Scherf et al.
# Submitted via: CDex 1.51
#
DISCID=a10c5e0e
DTITLE=The Jazzhole - The Jazzhole
DYEAR=1994
DGENRE=Jazz
TTITLE0=Intro
TTITLE1=Forward Motion
TTITLE2=Bumrush The Jazzhole
TTITLE3=Gotta B Everything
TTITLE4=Betcha Gonna Want Me Back
TTITLE5=Guitar Break
TTITLE6=Wild Is The Wind
TTITLE7=Time of The Season
TTITLE8=Tres Belle
TTITLE9=Piano Break
TTITLE10=Smile
TTITLE11=Body Fi Match
TTITLE12=Outro
TTITLE13=Forward Motion [Radio Mix]
EXTD=YEAR: 1994
EXTT0=
EXTT1=
EXTT2=
EXTT3=
EXTT4=
EXTT5=
EXTT6=
EXTT7=
EXTT8=
EXTT9=
EXTT10=
EXTT11=
EXTT12=
EXTT13=
PLAYORDER=
